<svg xmlns="http://www.w3.org/2000/svg" width="720" height="360" viewBox="0 0 720 360"><rect width="720" height="360" fill="#f4fbff"/><g stroke="#5a75fb" opacity=".07"><path d="M0 0V360"/><path d="M40 0V360"/><path d="M80 0V360"/><path d="M120 0V360"/><path d="M160 0V360"/><path d="M200 0V360"/><path d="M240 0V360"/><path d="M280 0V360"/><path d="M320 0V360"/><path d="M360 0V360"/><path d="M400 0V360"/><path d="M440 0V360"/><path d="M480 0V360"/><path d="M520 0V360"/><path d="M560 0V360"/><path d="M600 0V360"/><path d="M640 0V360"/><path d="M680 0V360"/><path d="M720 0V360"/><path d="M0 0H720"/><path d="M0 40H720"/><path d="M0 80H720"/><path d="M0 120H720"/><path d="M0 160H720"/><path d="M0 200H720"/><path d="M0 240H720"/><path d="M0 280H720"/><path d="M0 320H720"/><path d="M0 360H720"/></g><circle cx="630" cy="165" r="125" fill="none" stroke="#5a75fb" stroke-width="1.5"/><circle cx="650" cy="165" r="93" fill="none" stroke="#5a75fb" stroke-width="1.5"/><text x="35" y="43" font-family="Arial,sans-serif" font-size="12" letter-spacing="2" fill="#37383d">FENGLI / FIELD NOTES — 05</text><g font-family="Arial Black,Arial,sans-serif" font-size="62" font-weight="900" letter-spacing="-3" fill="#171717"><text x="32" y="150">NOTES ON</text><text x="32" y="213">AI + PEOPLE</text></g><path d="M36 272H684" stroke="#171717" opacity=".25"/><text x="36" y="309" font-family="Arial,sans-serif" font-size="17" fill="#37383d">FengLi / Writing &amp; reflections.</text><path d="M635 285v30m-15-15h30" stroke="#5a75fb" stroke-width="3"/></svg>